# xmcd CD database file
#
# Track frame offsets:
#	150
#	12227
#	26005
#	40325
#	52462
#	64090
#	75742
#	88130
#	100880
#	112640
#	125390
#	144455
#	157567
#	169635
#
# Disc length: 2462 seconds
#
# Revision: 2
# Processed by: cddbd v1.5.1PL0 Copyright (c) Steve Scherf et al.
# Submitted via: CDex 1.51
#
DISCID=ac099c0e
DTITLE=Tonico e Tinoco - O melhor de Tonico e Tinoco
DYEAR=2004
DGENRE=Country
TTITLE0=Destinos Iguais
TTITLE1=Adeus, Morena, Adeus
TTITLE2=Chico Mineiro
TTITLE3=Pé de Ipê
TTITLE4=Curitibana
TTITLE5=Gaucho Velho
TTITLE6=Carro de Boi
TTITLE7=Sereno da Madrugada
TTITLE8=Aparecida do Norte (Dia do Sertanejo)
TTITLE9=Cabocla
TTITLE10=João Palhaço
TTITLE11=Rei do Gado
TTITLE12=Moreninha Linda
TTITLE13=Ferreirinha
EXTD=YEAR: 2004
EXTT0=
EXTT1=
EXTT2=
EXTT3=
EXTT4=
EXTT5=
EXTT6=
EXTT7=
EXTT8=
EXTT9=
EXTT10=
EXTT11=
EXTT12=
EXTT13=
PLAYORDER=
